<?xml version="1.0" standalone="no"?>
<!DOCTYPE svg PUBLIC "-//W3C//DTD SVG 1.1//EN" "http://www.w3.org/Graphics/SVG/1.1/DTD/svg11.dtd" >
<svg>
<metadata>
Created by FontForge 20120731 at Sat Jun 29 17:05:28 2019
 By www
Copyright (c) 1990 Adobe Systems Incorporated.  All rights reserved.CG Triumvirate is a trademark of Agfa Corporation
</metadata>
<defs>
<font id="ATTriumvirate-Condensed" horiz-adv-x="481" >
  <font-face 
    font-family="ATTriumvirateCondensed"
    font-weight="500"
    font-stretch="normal"
    units-per-em="1000"
    panose-1="0 0 0 0 0 0 0 0 0 0"
    ascent="800"
    descent="-200"
    x-height="558"
    cap-height="750"
    bbox="-24 -221 1154 1018"
    underline-thickness="50"
    underline-position="-65"
    stemh="70"
    stemv="78"
    unicode-range="U+0020-FB02"
  />
<missing-glyph horiz-adv-x="296" 
 />
    <glyph glyph-name=".notdef" horiz-adv-x="296" 
 />
    <glyph glyph-name="space" unicode=" " horiz-adv-x="296" 
 />
    <glyph glyph-name="exclam" unicode="!" horiz-adv-x="296" 
d="M105 0v94h86v-94h-86zM130 181l-25 339v230h86v-230l-25 -339h-36z" />
    <glyph glyph-name="quotedbl" unicode="&#x22;" horiz-adv-x="407" 
d="M103 498l-23 252h98l-27 -252h-48zM252 498l-23 252h98l-27 -252h-48z" />
    <glyph glyph-name="numbersign" unicode="#" 
d="M35 -16l60 264h-83l13 59h83l29 124h-83l13 59h83l59 260h59l-59 -260h117l59 260h59l-59 -260h83l-13 -59h-83l-29 -124h83l-13 -59h-83l-61 -264h-59l61 264h-117l-61 -264h-58zM196 431l-29 -124h117l29 124h-117z" />
    <glyph glyph-name="dollar" unicode="$" 
d="M216 -96v96c-150 12 -193 92 -193 245h83c0 -88 14 -160 110 -175v270c-65 33 -182 56 -182 201c0 138 102 188 181 192v45h45v-45c146 -10 176 -95 179 -202h-83c0 26 -5 125 -95 132v-247l70 -29c85 -34 126 -85 126 -180c0 -157 -112 -201 -196 -207v-96h-45zM216 433
v230c-39 -7 -90 -29 -90 -117c0 -74 41 -86 90 -113zM261 325v-255c62 2 104 48 104 117c0 89 -41 109 -104 138z" />
    <glyph glyph-name="percent" unicode="%" horiz-adv-x="852" 
d="M187 245c-128 0 -143 111 -143 246c0 160 30 257 146 257s146 -97 146 -257c0 -135 -15 -246 -149 -246zM119 496c0 -110 0 -189 70 -189c72 0 72 79 72 189c0 118 -3 190 -71 190s-71 -72 -71 -190zM659 -8c-128 0 -143 111 -143 246c0 160 30 257 146 257
s146 -97 146 -257c0 -135 -15 -246 -149 -246zM591 243c0 -110 0 -189 70 -189c72 0 72 79 72 189c0 118 -3 190 -71 190s-71 -72 -71 -190zM220 -8l354 756h63l-353 -756h-64z" />
    <glyph glyph-name="ampersand" unicode="&#x26;" horiz-adv-x="593" 
d="M487 0l-46 72c-28 -30 -73 -88 -182 -88c-123 0 -208 91 -208 216c0 134 91 189 148 224c-25 33 -69 107 -69 179c0 87 69 147 150 147s149 -58 149 -143c0 -112 -69 -155 -128 -201l140 -201c25 57 23 78 29 138h74c-1 -77 -39 -185 -57 -206l95 -137h-95zM397 132
l-159 231c-35 -24 -104 -70 -104 -160c0 -74 49 -144 138 -144c65 0 93 32 125 73zM213 601c0 -45 24 -97 49 -136c35 36 84 71 84 135c0 44 -28 75 -66 75c-39 0 -67 -36 -67 -74z" />
    <glyph glyph-name="quoteright" unicode="&#x2019;" horiz-adv-x="296" 
d="M109 506v43c34 12 45 40 45 99h-45v102h92v-102c0 -106 -55 -132 -92 -142z" />
    <glyph glyph-name="parenleft" unicode="(" horiz-adv-x="296" 
d="M275 -192h-61c-65 100 -153 242 -153 451c0 226 82 391 151 491h62c-84 -141 -121 -287 -121 -492c0 -186 71 -353 122 -450z" />
    <glyph glyph-name="parenright" unicode=")" horiz-adv-x="296" 
d="M82 -192h-61c51 97 122 264 122 450c0 205 -37 351 -121 492h62c69 -100 151 -265 151 -491c0 -209 -88 -351 -153 -451z" />
    <glyph glyph-name="asterisk" unicode="*" 
d="M174 462l-48 35l66 90l-107 35l22 58l104 -39v109h61v-109l104 39l20 -58l-104 -35l62 -90l-50 -35l-61 95z" />
    <glyph glyph-name="plus" unicode="+" horiz-adv-x="852" 
d="M387 0v261h-260v78h260v260h78v-260h260v-78h-260v-261h-78z" />
    <glyph glyph-name="comma" unicode="," horiz-adv-x="296" 
d="M103 -143v44c40 12 45 80 45 99h-42v102h86v-94c0 -85 -40 -145 -89 -151z" />
    <glyph glyph-name="hyphen" unicode="-" horiz-adv-x="296" 
d="M37 234v78h221v-78h-221z" />
    <glyph glyph-name="period" unicode="." horiz-adv-x="296" 
d="M105 0v102h86v-102h-86z" />
    <glyph glyph-name="slash" unicode="/" horiz-adv-x="296" 
d="M8 -16l213 766h72l-213 -766h-72z" />
    <glyph glyph-name="zero" unicode="0" 
d="M35 374c0 184 18 382 210 382c185 0 201 -209 201 -381c0 -232 -29 -391 -205 -391c-180 0 -206 157 -206 390zM241 681c-109 0 -114 -135 -114 -305c0 -199 13 -317 115 -317c104 0 112 131 112 317c0 124 0 305 -113 305z" />
    <glyph glyph-name="one" unicode="1" 
d="M244 0v536h-158v70c124 0 163 42 174 134h70v-740h-86z" />
    <glyph glyph-name="two" unicode="2" 
d="M442 0h-403c8 111 9 187 138 301l86 76c46 38 85 96 85 165c0 94 -43 139 -103 139c-116 0 -111 -125 -116 -177h-83c0 144 48 252 200 252c118 0 194 -71 194 -202c0 -91 -36 -168 -105 -223l-81 -69c-55 -47 -112 -118 -126 -187h314v-75z" />
    <glyph glyph-name="three" unicode="3" 
d="M136 532h-86c0 127 54 224 194 224c112 0 185 -71 185 -186c0 -120 -57 -149 -93 -168c48 -21 111 -42 111 -185c0 -140 -80 -233 -212 -233c-176 2 -202 140 -202 239h86c0 -62 11 -164 115 -164c74 0 121 59 121 149c0 149 -111 149 -171 149v75c75 0 153 5 153 126
c0 83 -43 123 -100 123c-88 0 -101 -84 -101 -149z" />
    <glyph glyph-name="four" unicode="4" 
d="M301 0v182h-274v75l278 483h82v-483h75v-75h-75v-182h-86zM299 596l-194 -339h196v339h-2z" />
    <glyph glyph-name="five" unicode="5" 
d="M36 198h86c0 -67 24 -139 109 -139c86 0 122 82 122 179c0 82 -25 181 -120 181c-66 0 -89 -35 -106 -75l-73 9l47 387h318v-75h-251l-27 -210c34 20 49 39 113 39c110 0 191 -82 191 -246s-81 -264 -213 -264c-155 0 -196 113 -196 214z" />
    <glyph glyph-name="six" unicode="6" 
d="M430 572h-86c0 48 -27 109 -95 109c-128 0 -118 -199 -130 -273l2 -2c30 41 69 77 142 77c130 0 185 -105 185 -238c0 -176 -95 -261 -206 -261c-173 0 -209 167 -209 372c0 235 45 400 220 400c144 0 177 -112 177 -184zM128 236c0 -105 41 -177 119 -177
c72 0 111 74 111 179c0 107 -43 167 -115 167c-69 0 -115 -46 -115 -169z" />
    <glyph glyph-name="seven" unicode="7" 
d="M208 0h-98c22 148 90 420 265 665h-337v75h418v-70c-86 -144 -216 -336 -248 -670z" />
    <glyph glyph-name="eight" unicode="8" 
d="M248 -16c-137 0 -205 99 -205 223c0 139 68 171 115 195c-42 23 -94 50 -94 156c0 121 71 198 184 198c111 0 184 -73 184 -191c0 -109 -64 -145 -95 -160c56 -22 116 -59 116 -186c0 -126 -64 -235 -205 -235zM135 216c0 -103 45 -157 114 -157c63 0 112 53 112 157
c0 92 -49 145 -113 145c-67 0 -113 -50 -113 -145zM156 558c0 -69 37 -119 92 -119c70 0 92 61 92 115c0 84 -36 127 -92 127c-57 0 -92 -45 -92 -123z" />
    <glyph glyph-name="nine" unicode="9" 
d="M46 170h86c0 -55 37 -111 90 -111c130 0 139 221 139 276h-2c-21 -31 -57 -78 -136 -78c-107 0 -190 73 -190 244c0 166 85 255 207 255c173 0 207 -159 207 -348c0 -183 -26 -424 -225 -424c-142 0 -176 125 -176 186zM125 494c0 -107 47 -162 112 -162
c71 0 115 56 115 165c0 123 -50 184 -116 184c-69 0 -111 -63 -111 -187z" />
    <glyph glyph-name="colon" unicode=":" horiz-adv-x="296" 
d="M105 444v102h86v-102h-86zM105 0v102h86v-102h-86z" />
    <glyph glyph-name="semicolon" unicode=";" horiz-adv-x="296" 
d="M103 -139v46c40 25 38 46 42 93h-39v102h86v-88c0 -83 -35 -137 -89 -153zM106 444v102h86v-102h-86z" />
    <glyph glyph-name="less" unicode="&#x3c;" horiz-adv-x="852" 
d="M697 0l-604 265v70l604 265v-86l-489 -214l489 -214v-86z" />
    <glyph glyph-name="equal" unicode="=" horiz-adv-x="852" 
d="M126 163v78h599v-78h-599zM126 358v78h599v-78h-599z" />
    <glyph glyph-name="greater" unicode="&#x3e;" horiz-adv-x="852" 
d="M155 0v86l489 214l-489 214v86l604 -265v-70z" />
    <glyph glyph-name="question" unicode="?" horiz-adv-x="444" 
d="M255 178h-86c0 105 13 143 56 195l54 65c28 33 45 78 45 121c0 61 -30 116 -93 116c-94 0 -104 -106 -104 -161h-86c0 107 34 236 189 236c113 0 186 -81 186 -191c0 -72 -26 -121 -66 -167l-47 -55c-36 -44 -48 -72 -48 -159zM169 0v94h86v-94h-86z" />
    <glyph glyph-name="at" unicode="@" horiz-adv-x="1000" 
d="M804 52l26 -23c-26 -30 -153 -124 -323 -124c-238 0 -412 136 -412 331c0 237 207 446 448 446c203 0 362 -133 362 -324c0 -180 -142 -320 -281 -320c-64 0 -72 46 -73 71c-13 -15 -54 -65 -130 -65c-73 0 -132 49 -132 143c0 145 128 327 258 327c82 0 107 -55 117 -74
l22 54h86l-83 -207c-23 -56 -61 -150 -61 -170c0 -16 7 -27 30 -27c73 0 200 98 200 268c0 172 -145 273 -311 273c-194 0 -384 -197 -384 -394c0 -164 134 -287 348 -287c182 0 279 91 293 102zM368 152c0 -48 30 -67 70 -67c63 0 93 59 109 85c57 92 84 213 84 241
c0 31 -21 64 -62 64c-96 0 -201 -228 -201 -323z" />
    <glyph glyph-name="A" unicode="A" horiz-adv-x="556" 
d="M16 0l206 750h112l206 -750h-88l-54 212h-241l-53 -212h-88zM277 686l-100 -399h201l-99 399h-2z" />
    <glyph glyph-name="B" unicode="B" horiz-adv-x="537" 
d="M74 0v750h208c117 0 196 -48 196 -187c0 -128 -70 -155 -103 -164v-2c50 -14 125 -47 125 -176c0 -139 -76 -221 -222 -221h-204zM160 352v-277h90c106 0 158 30 158 141c0 96 -47 136 -138 136h-110zM160 675v-248h94c91 0 132 30 132 132c0 68 -32 116 -117 116h-109z
" />
    <glyph glyph-name="C" unicode="C" horiz-adv-x="537" 
d="M414 270h86c-3 -107 -29 -286 -220 -286c-138 0 -233 73 -233 378c0 280 65 404 239 404s211 -134 213 -240h-86c-7 71 -21 165 -128 165c-135 0 -146 -150 -146 -326c0 -198 33 -306 141 -306c123 0 127 132 134 211z" />
    <glyph glyph-name="D" unicode="D" horiz-adv-x="574" 
d="M70 0v750h218c210 0 246 -154 246 -389c0 -151 -41 -361 -223 -361h-241zM156 675v-600h121c128 0 165 137 165 284c0 194 -19 316 -165 316h-121z" />
    <glyph glyph-name="E" unicode="E" horiz-adv-x="500" 
d="M76 0v750h375v-75h-289v-246h270v-75h-270v-279h289v-75h-375z" />
    <glyph glyph-name="F" unicode="F" horiz-adv-x="444" 
d="M77 0v750h348v-75h-262v-246h246v-75h-246v-354h-86z" />
    <glyph glyph-name="G" unicode="G" horiz-adv-x="574" 
d="M458 0l-3 92h-2c-21 -48 -59 -108 -164 -108c-175 0 -241 117 -241 397c0 260 75 385 252 385s220 -134 220 -235h-86c0 65 -20 160 -136 160c-107 0 -158 -84 -158 -306c0 -241 54 -326 153 -326c89 0 140 71 145 153l2 96h-164v75h250v-383h-68z" />
    <glyph glyph-name="H" unicode="H" horiz-adv-x="593" 
d="M72 0v750h86v-311h277v311h86v-750h-86v364h-277v-364h-86z" />
    <glyph glyph-name="I" unicode="I" horiz-adv-x="241" 
d="M77 0v750h86v-750h-86z" />
    <glyph glyph-name="J" unicode="J" horiz-adv-x="444" 
d="M382 750v-553c0 -129 -33 -213 -175 -213c-101 0 -172 48 -172 170v80h86v-67c0 -76 32 -108 89 -108c86 0 86 62 86 140v551h86z" />
    <glyph glyph-name="K" unicode="K" horiz-adv-x="537" 
d="M75 0v750h86v-375h2l268 375h102l-239 -314l245 -436h-101l-198 365l-79 -107v-258h-86z" />
    <glyph glyph-name="L" unicode="L" horiz-adv-x="500" 
d="M76 0v750h86v-675h301v-75h-387z" />
    <glyph glyph-name="M" unicode="M" horiz-adv-x="740" 
d="M65 0v750h143l161 -637h2l161 637h143v-750h-86v695h-2l-174 -695h-86l-174 695h-2v-695h-86z" />
    <glyph glyph-name="N" unicode="N" horiz-adv-x="593" 
d="M70 0v750h117l248 -637h2v637h86v-750h-117l-248 637h-2v-637h-86z" />
    <glyph glyph-name="O" unicode="O" horiz-adv-x="574" 
d="M285 -16c-211 0 -241 203 -241 390c0 213 40 392 245 392c217 0 241 -185 241 -392c0 -198 -36 -390 -245 -390zM136 374c0 -169 3 -315 153 -315c138 0 149 151 149 322c0 155 -6 310 -149 310c-146 0 -153 -160 -153 -317z" />
    <glyph glyph-name="P" unicode="P" horiz-adv-x="537" 
d="M75 0v750h216c149 0 219 -84 219 -212c0 -155 -87 -223 -224 -223h-125v-315h-86zM161 675v-285h129c77 0 128 51 128 145c0 106 -57 140 -143 140h-114z" />
    <glyph glyph-name="Q" unicode="Q" horiz-adv-x="574" 
d="M515 -36l-83 72c-31 -25 -68 -52 -140 -52c-217 0 -245 199 -245 390c0 236 54 392 245 392c200 0 240 -160 240 -392c0 -167 -22 -224 -54 -284l85 -70zM343 201l69 -58c19 39 28 131 28 231c0 166 -5 317 -148 317c-151 0 -153 -173 -153 -317c0 -183 21 -315 153 -315
c41 0 60 11 82 26l-75 61z" />
    <glyph glyph-name="R" unicode="R" horiz-adv-x="574" 
d="M79 0v750h236c120 0 212 -49 212 -194c0 -127 -74 -160 -123 -181v-2c47 -12 71 -30 88 -52c33 -43 25 -184 37 -261c3 -20 20 -37 28 -45v-15h-99c-28 29 -25 224 -39 262c-21 56 -66 71 -132 71h-122v-333h-86zM165 675v-267h135c67 0 135 35 135 139
c0 92 -51 128 -147 128h-123z" />
    <glyph glyph-name="S" unicode="S" horiz-adv-x="537" 
d="M253 443l86 -31c95 -33 163 -66 163 -208c0 -139 -92 -220 -227 -220c-182 0 -231 110 -231 215v38h86v-36c0 -68 35 -142 141 -142c90 0 139 51 139 136c0 110 -57 118 -147 151l-78 28c-88 30 -127 84 -127 184c0 127 79 208 218 208c176 0 206 -125 206 -213h-86
c0 47 -9 138 -122 138c-77 0 -124 -42 -124 -126c0 -78 40 -99 103 -122z" />
    <glyph glyph-name="T" unicode="T" horiz-adv-x="500" 
d="M207 0v675h-186v75h458v-75h-186v-675h-86z" />
    <glyph glyph-name="U" unicode="U" horiz-adv-x="593" 
d="M521 750v-555c0 -99 -45 -211 -226 -211s-223 112 -223 211v555h86v-545c0 -40 12 -146 140 -146c129 0 137 106 137 146v545h86z" />
    <glyph glyph-name="V" unicode="V" horiz-adv-x="556" 
d="M225 0l-214 750h93l173 -664h2l173 664h93l-214 -750h-106z" />
    <glyph glyph-name="W" unicode="W" horiz-adv-x="815" 
d="M178 0l-162 750h93l120 -652h2l129 652h94l129 -652h2l120 652h93l-162 -750h-98l-130 637h-2l-130 -637h-98z" />
    <glyph glyph-name="X" unicode="X" horiz-adv-x="537" 
d="M9 0l207 384l-198 366h105l145 -295l150 295h92l-193 -357l211 -393h-105l-155 330l-167 -330h-92z" />
    <glyph glyph-name="Y" unicode="Y" horiz-adv-x="556" 
d="M235 0v287l-224 463h99l168 -389l168 389h99l-224 -463v-287h-86z" />
    <glyph glyph-name="Z" unicode="Z" horiz-adv-x="500" 
d="M27 0v70l348 605h-336v75h428v-74l-348 -601h354v-75h-446z" />
    <glyph glyph-name="bracketleft" unicode="[" horiz-adv-x="296" 
d="M99 -192v942h153v-84h-67v-774h67v-84h-153z" />
    <glyph glyph-name="backslash" unicode="\" horiz-adv-x="296" 
d="M221 -16l-218 766h72l218 -766h-72z" />
    <glyph glyph-name="bracketright" unicode="]" horiz-adv-x="296" 
d="M52 -192v84h67v774h-67v84h153v-942h-153z" />
    <glyph glyph-name="asciicircum" unicode="^" 
d="M56 351l157 399h61l151 -399h-64l-118 334h-2l-121 -334h-64z" />
    <glyph glyph-name="underscore" unicode="_" horiz-adv-x="500" 
d="M0 -115v50h500v-50h-500z" />
    <glyph glyph-name="quoteleft" unicode="&#x2018;" horiz-adv-x="296" 
d="M106 506v102c0 106 55 132 92 142v-43c-34 -12 -45 -40 -45 -99h45v-102h-92z" />
    <glyph glyph-name="a" unicode="a" horiz-adv-x="444" 
d="M427 57v-57c-14 -6 -29 -8 -38 -8c-61 0 -75 39 -81 63c-21 -34 -43 -71 -130 -71c-89 0 -130 58 -130 156c0 97 40 139 122 168l78 27c50 17 55 25 55 82c0 48 -16 87 -78 87s-87 -42 -87 -97h-75c0 70 20 167 163 167c114 0 155 -55 155 -144v-318c0 -50 10 -56 35 -56
c4 0 7 0 11 1zM303 291l-40 -16c-86 -36 -132 -36 -132 -134c0 -59 29 -87 72 -87c52 0 100 51 100 135v102z" />
    <glyph glyph-name="b" unicode="b" 
d="M69 0v750h78v-244h2c16 24 44 68 122 68c96 0 166 -72 166 -287c0 -157 -34 -303 -187 -303c-64 0 -87 43 -109 84h-2v-68h-70zM147 287c0 -128 19 -233 103 -233c79 0 104 89 104 233c0 176 -44 217 -106 217c-83 0 -101 -92 -101 -217z" />
    <glyph glyph-name="c" unicode="c" horiz-adv-x="444" 
d="M328 191h83c-8 -64 -16 -207 -173 -207c-162 0 -190 139 -190 291c0 193 54 299 190 299c141 0 172 -114 173 -192h-83c-9 56 -21 122 -90 122c-88 0 -107 -117 -107 -229c0 -145 23 -221 107 -221c64 0 85 57 90 137z" />
    <glyph glyph-name="d" unicode="d" 
d="M348 0v70h-2c-18 -40 -35 -86 -128 -86c-140 0 -173 143 -173 298c0 179 56 292 180 292c54 0 91 -30 113 -67h2v243h78v-750h-70zM128 282c0 -186 47 -228 100 -228c71 0 115 53 115 229s-43 221 -108 221c-75 0 -107 -72 -107 -222z" />
    <glyph glyph-name="e" unicode="e" horiz-adv-x="444" 
d="M318 182h78c0 -86 -36 -198 -168 -198c-157 0 -182 133 -182 297c0 166 36 293 182 293c169 0 170 -173 170 -303h-269c0 -117 10 -217 99 -217c82 0 90 100 90 128zM129 341h186c0 55 -3 163 -87 163c-85 0 -99 -97 -99 -163z" />
    <glyph glyph-name="f" unicode="f" horiz-adv-x="278" 
d="M103 0v488h-80v70h80v66c0 73 37 126 111 126c19 0 38 0 56 -2v-70c-5 0 -13 2 -30 2c-55 0 -59 -35 -59 -70v-52h88v-70h-88v-488h-78z" />
    <glyph glyph-name="g" unicode="g" 
d="M428 558v-493c0 -114 -12 -257 -190 -257c-123 0 -162 77 -168 134h78c8 -34 31 -64 89 -64c113 0 113 120 113 182h-2c-24 -35 -44 -76 -117 -76c-123 0 -176 102 -176 292c0 182 49 298 175 298c83 0 114 -54 126 -84h2v68h70zM138 284c0 -134 13 -230 102 -230
c83 0 110 82 110 225c0 109 -14 225 -110 225c-85 0 -102 -115 -102 -220z" />
    <glyph glyph-name="h" unicode="h" 
d="M70 0v750h78v-251h2c18 30 62 75 134 75c100 0 136 -71 136 -146v-428h-78v400c0 60 -15 104 -80 104c-80 0 -114 -87 -114 -93v-411h-78z" />
    <glyph glyph-name="i" unicode="i" horiz-adv-x="204" 
d="M63 0v558h78v-558h-78zM63 648v102h78v-102h-78z" />
    <glyph glyph-name="j" unicode="j" horiz-adv-x="204" 
d="M4 -191v70c4 0 12 -1 17 -1c37 0 45 17 45 102v578h78v-603c0 -109 -40 -147 -112 -147c-13 0 -23 1 -28 1zM66 648v102h78v-102h-78z" />
    <glyph glyph-name="k" unicode="k" horiz-adv-x="426" 
d="M64 0v750h78v-458h2l194 266h95l-173 -217l166 -341h-83l-135 276l-66 -81v-195h-78z" />
    <glyph glyph-name="l" unicode="l" horiz-adv-x="204" 
d="M63 0v750h78v-750h-78z" />
    <glyph glyph-name="m" unicode="m" horiz-adv-x="759" 
d="M67 0v558h70v-69h2c17 26 57 85 144 85c91 0 111 -51 124 -84c21 38 65 84 148 84c97 0 136 -61 136 -150v-424h-78v406c0 59 -17 98 -80 98c-67 0 -115 -53 -115 -120v-384h-78v391c0 68 -12 113 -79 113c-84 0 -116 -83 -116 -92v-412h-78z" />
    <glyph glyph-name="n" unicode="n" 
d="M65 0v558h70v-62h2c12 25 52 78 145 78c87 0 134 -51 134 -141v-433h-78v393c0 74 -18 111 -81 111c-84 0 -114 -79 -114 -94v-410h-78z" />
    <glyph glyph-name="o" unicode="o" 
d="M238 -16c-144 0 -193 110 -193 300c0 187 53 290 195 290c143 0 196 -104 196 -279c0 -192 -49 -311 -198 -311zM128 275c0 -140 23 -221 110 -221c97 0 115 87 115 239c0 130 -24 211 -108 211c-97 0 -117 -87 -117 -229z" />
    <glyph glyph-name="p" unicode="p" 
d="M69 -192v750h70v-69h2c25 41 58 85 126 85c140 0 170 -146 170 -303c0 -215 -70 -287 -166 -287c-77 0 -105 45 -122 69h-2v-245h-78zM143 272c0 -126 19 -218 105 -218c62 0 106 41 106 217c0 144 -25 233 -101 233c-90 0 -110 -106 -110 -232z" />
    <glyph glyph-name="q" unicode="q" 
d="M341 -192v252h-2c-6 -32 -46 -76 -120 -76c-112 0 -170 91 -170 294c0 221 70 296 174 296c83 0 109 -48 124 -88h2v72h70v-750h-78zM132 279c0 -160 32 -225 103 -225c65 0 106 70 106 200c0 155 -19 250 -104 250c-75 0 -105 -75 -105 -225z" />
    <glyph glyph-name="r" unicode="r" horiz-adv-x="315" 
d="M76 0v558h70v-98h2c5 49 58 114 150 114c5 0 12 -1 15 -2v-80c-10 0 -21 1 -31 1c-81 0 -128 -74 -128 -163v-330h-78z" />
    <glyph glyph-name="s" unicode="s" horiz-adv-x="426" 
d="M379 410h-78c0 28 0 94 -86 94c-49 0 -83 -27 -83 -81c0 -144 262 -58 262 -267c0 -106 -66 -172 -179 -172c-165 0 -176 109 -176 178h78c0 -55 13 -108 100 -108c56 0 94 35 94 91c0 157 -262 50 -262 278c0 86 62 151 166 151c142 0 164 -86 164 -164z" />
    <glyph glyph-name="t" unicode="t" horiz-adv-x="278" 
d="M261 55v-67c-22 -1 -43 -4 -64 -4c-101 0 -104 57 -104 131v373h-77v70h77v136h78v-136h90v-70h-90v-370c0 -40 4 -64 56 -64c11 0 23 1 34 1z" />
    <glyph glyph-name="u" unicode="u" 
d="M346 0v69h-2c-24 -48 -47 -85 -143 -85c-136 0 -136 95 -136 195v379h78v-380c0 -69 0 -124 81 -124c71 0 114 61 114 144v360h78v-558h-70z" />
    <glyph glyph-name="v" unicode="v" horiz-adv-x="444" 
d="M178 0l-158 558h87l114 -464h2l114 464h87l-158 -558h-88z" />
    <glyph glyph-name="w" unicode="w" horiz-adv-x="648" 
d="M154 0l-141 558h77l102 -456h2l88 456h84l88 -456h2l102 456h77l-141 -558h-81l-88 449h-2l-88 -449h-81z" />
    <glyph glyph-name="x" unicode="x" horiz-adv-x="444" 
d="M10 0l164 288l-157 270h91l113 -210l116 210h87l-154 -270l164 -288h-91l-122 227l-124 -227h-87z" />
    <glyph glyph-name="y" unicode="y" horiz-adv-x="444" 
d="M439 558l-178 -580c-18 -59 -50 -170 -161 -170c-20 0 -43 5 -60 9v68c13 -2 32 -8 50 -8c69 0 76 65 97 116l-164 565h85l116 -457h2l128 457h85z" />
    <glyph glyph-name="z" unicode="z" horiz-adv-x="370" 
d="M16 0v72l249 416h-237v70h325v-64l-254 -424h254v-70h-337z" />
    <glyph glyph-name="braceleft" unicode="{" horiz-adv-x="537" 
d="M415 -196v-25c-100 4 -211 74 -211 170c0 36 6 66 12 96c7 35 16 68 16 94c0 62 -53 109 -110 127v24c57 18 110 60 110 127c0 26 -9 59 -16 94c-6 30 -12 60 -12 96c0 96 111 166 211 170v-25c-74 -17 -107 -79 -107 -136c0 -26 3 -53 7 -85c3 -24 7 -60 7 -79
c0 -111 -105 -153 -155 -174c50 -22 155 -67 155 -174c0 -19 -4 -55 -7 -79c-4 -32 -7 -59 -7 -85c0 -57 33 -119 107 -136z" />
    <glyph glyph-name="bar" unicode="|" horiz-adv-x="333" 
d="M142 -184v1017h49v-1017h-49z" />
    <glyph glyph-name="braceright" unicode="}" horiz-adv-x="537" 
d="M122 -221v25c74 17 107 79 107 136c0 26 -3 53 -7 85c-3 24 -7 60 -7 79c0 107 105 152 155 174c-50 21 -155 63 -155 174c0 19 4 55 7 79c4 32 7 59 7 85c0 57 -33 119 -107 136v25c100 -4 211 -74 211 -170c0 -36 -6 -66 -12 -96c-7 -35 -16 -68 -16 -94
c0 -67 53 -109 110 -127v-24c-57 -18 -110 -65 -110 -127c0 -26 9 -59 16 -94c6 -30 12 -60 12 -96c0 -96 -111 -166 -211 -170z" />
    <glyph glyph-name="asciitilde" unicode="~" horiz-adv-x="852" 
d="M667 412h78c0 -96 0 -274 -162 -274c-170 0 -160 240 -279 240c-84 -16 -84 -131 -84 -190h-78c0 93 0 268 162 275c187 0 161 -239 279 -239c84 0 84 124 84 188z" />
    <glyph glyph-name="exclamdown" unicode="&#xa1;" horiz-adv-x="296" 
d="M105 464v94h86v-94h-86zM105 -192v230l25 339h36l25 -339v-230h-86z" />
    <glyph glyph-name="cent" unicode="&#xa2;" 
d="M223 -25v103c-78 6 -164 54 -164 283c0 214 58 273 164 297v41h46v-41c117 -6 152 -110 152 -190h-75c-4 71 -22 111 -77 128v-456c61 18 68 76 77 144h75c-5 -100 -36 -193 -152 -206v-103h-46zM223 140v456c-61 -30 -81 -95 -81 -237c0 -143 19 -200 81 -219z" />
    <glyph glyph-name="sterling" unicode="&#xa3;" 
d="M95 -16l-32 62c46 36 83 57 83 139c0 59 -11 88 -23 129h-76v75h56c-19 51 -40 98 -40 157c0 124 79 194 194 194c141 0 185 -105 185 -224h-86c-5 51 -9 149 -100 149c-70 0 -101 -49 -101 -112c0 -60 22 -110 40 -164h114v-75h-97c7 -24 17 -81 17 -100
c0 -51 -27 -119 -61 -147l2 -2c23 7 48 14 74 14c15 0 79 -9 91 -9c42 0 59 7 88 18l30 -77c-28 -15 -56 -27 -95 -27c-70 0 -94 22 -165 22c-41 0 -66 -11 -98 -22z" />
    <glyph glyph-name="fraction" unicode="&#x2044;" horiz-adv-x="298" 
d="M-24 -8l284 756h63l-283 -756h-64z" />
    <glyph glyph-name="yen" unicode="&#xa5;" 
d="M197 0v89h-107v42h107v41h-107v42h107v75l-185 461h99l128 -374h2l128 374h99l-185 -461v-75h107v-42h-107v-41h107v-42h-107v-89h-86z" />
    <glyph glyph-name="florin" unicode="&#x192;" 
d="M92 0l106 488h-66l14 70h67l17 79c16 69 46 113 130 113c20 0 41 -4 61 -8l-14 -65c-10 1 -20 3 -31 3c-49 0 -58 -28 -68 -83l-9 -39h80l-13 -70h-82l-106 -488h-86z" />
    <glyph glyph-name="section" unicode="&#xa7;" 
d="M227 511l107 -83c57 -43 110 -96 110 -169c0 -84 -51 -123 -81 -150c19 -33 36 -52 36 -110c0 -97 -62 -160 -160 -160c-108 0 -163 64 -163 177v18h78c0 -73 18 -120 86 -120c49 0 81 33 81 81c0 54 -35 86 -69 113l-120 97c-42 33 -95 84 -95 159c0 76 58 119 78 147
c-16 28 -32 50 -32 94c0 102 66 161 158 161c110 0 155 -72 155 -184v-7h-78c0 55 0 116 -77 116c-48 0 -80 -30 -80 -85c0 -43 21 -61 66 -95zM266 382l-107 82c-21 -25 -44 -45 -44 -98c0 -41 33 -75 68 -103l140 -112c22 28 43 58 43 92c0 46 -33 90 -100 139z" />
    <glyph glyph-name="currency" unicode="&#xa4;" 
d="M35 150l-30 30l67 67c-33 36 -47 88 -47 136c0 49 17 100 48 138l-70 70l32 31l69 -68c39 28 88 46 137 46c48 0 97 -18 136 -46l69 68l32 -31l-70 -70c35 -36 48 -89 48 -138c0 -48 -15 -100 -47 -136l67 -67l-30 -30l-66 66c-44 -33 -90 -47 -139 -47
c-50 0 -103 18 -140 47zM241 559c-97 0 -175 -80 -175 -176s79 -173 175 -173c95 0 174 78 174 173c0 96 -78 176 -174 176z" />
    <glyph glyph-name="quotesingle" unicode="'" horiz-adv-x="296" 
d="M123 498l-24 252h98l-26 -252h-48z" />
    <glyph glyph-name="quotedblleft" unicode="&#x201c;" horiz-adv-x="407" 
d="M84 506v102c0 106 55 132 92 142v-43c-34 -12 -45 -40 -45 -99h45v-102h-92zM233 506v105c0 101 61 128 92 139v-46c-37 -18 -42 -55 -42 -96h42v-102h-92z" />
    <glyph glyph-name="guillemotleft" unicode="&#xab;" horiz-adv-x="370" 
d="M183 87l-140 140v97l140 141v-102l-87 -86l87 -88v-102zM337 87l-140 140v97l140 141v-102l-87 -86l87 -88v-102z" />
    <glyph glyph-name="guilsinglleft" unicode="&#x2039;" horiz-adv-x="222" 
d="M181 87l-140 140v97l140 141v-102l-87 -86l87 -88v-102z" />
    <glyph glyph-name="guilsinglright" unicode="&#x203a;" horiz-adv-x="222" 
d="M41 87v102l87 88l-87 86v102l140 -141v-97z" />
    <glyph glyph-name="fi" unicode="&#xfb01;" 
d="M95 0v488h-80v70h80v66c0 73 37 126 111 126c19 0 38 0 56 -2v-70c-5 0 -13 2 -30 2c-55 0 -59 -35 -59 -70v-52h88v-70h-88v-488h-78zM335 648v102h78v-102h-78zM335 0v558h78v-558h-78z" />
    <glyph glyph-name="fl" unicode="&#xfb02;" 
d="M94 0v488h-80v70h80v66c0 73 37 126 111 126c19 0 38 0 56 -2v-70c-5 0 -13 2 -30 2c-55 0 -59 -35 -59 -70v-52h88v-70h-88v-488h-78zM334 0v750h78v-750h-78z" />
    <glyph glyph-name="endash" unicode="&#x2013;" 
d="M38 235v75h404v-75h-404z" />
    <glyph glyph-name="dagger" unicode="&#x2020;" 
d="M203 -154v627h-159v75h159v202h75v-202h159v-75h-159v-627h-75z" />
    <glyph glyph-name="daggerdbl" unicode="&#x2021;" 
d="M203 -145v202h-159v75h159v341h-159v75h159v202h75v-202h159v-75h-159v-341h159v-75h-159v-202h-75z" />
    <glyph glyph-name="periodcentered" unicode="&#xb7;" 
d="M184 319v102h112v-102h-112z" />
    <glyph glyph-name="paragraph" unicode="&#xb6;" 
d="M254 -154v437c-84 10 -221 65 -221 227c0 174 159 240 299 240h115v-37h-58v-867h-37v867h-61v-867h-37z" />
    <glyph glyph-name="bullet" unicode="&#x2022;" horiz-adv-x="500" 
d="M250 194c-100 0 -181 81 -181 180c0 100 81 182 181 182c99 0 181 -82 181 -182c0 -99 -82 -180 -181 -180z" />
    <glyph glyph-name="quotesinglbase" unicode="&#x201a;" horiz-adv-x="296" 
d="M109 -142v43c34 12 45 40 45 99h-45v102h92v-102c0 -106 -55 -132 -92 -142z" />
    <glyph glyph-name="quotedblbase" unicode="&#x201e;" horiz-adv-x="407" 
d="M89 -142v43c34 12 45 40 45 99h-45v102h92v-102c0 -106 -55 -132 -92 -142zM238 -142v46c37 18 42 55 42 96h-42v102h92v-105c0 -101 -61 -128 -92 -139z" />
    <glyph glyph-name="quotedblright" unicode="&#x201d;" horiz-adv-x="407" 
d="M89 506v43c34 12 45 40 45 99h-45v102h92v-102c0 -106 -55 -132 -92 -142zM238 506v46c37 18 42 55 42 96h-42v102h92v-105c0 -101 -61 -128 -92 -139z" />
    <glyph glyph-name="guillemotright" unicode="&#xbb;" horiz-adv-x="370" 
d="M197 87v102l87 88l-87 86v102l140 -141v-97zM43 87v102l87 88l-87 86v102l140 -141v-97z" />
    <glyph glyph-name="ellipsis" unicode="&#x2026;" horiz-adv-x="852" 
d="M104 0v86h78v-86h-78zM387 0v86h78v-86h-78zM670 0v86h78v-86h-78z" />
    <glyph glyph-name="perthousand" unicode="&#x2030;" horiz-adv-x="1204" 
d="M193 245c-128 0 -143 111 -143 246c0 160 30 257 146 257s146 -97 146 -257c0 -135 -15 -246 -149 -246zM125 496c0 -110 0 -189 70 -189c72 0 72 79 72 189c0 118 -3 190 -71 190s-71 -72 -71 -190zM665 -8c-128 0 -143 111 -143 246c0 160 30 257 146 257
s146 -97 146 -257c0 -135 -15 -246 -149 -246zM597 243c0 -110 0 -189 70 -189c72 0 72 79 72 189c0 118 -3 190 -71 190s-71 -72 -71 -190zM1005 -8c-128 0 -143 111 -143 246c0 160 30 257 146 257s146 -97 146 -257c0 -135 -15 -246 -149 -246zM937 243
c0 -110 0 -189 70 -189c72 0 72 79 72 189c0 118 -3 190 -71 190s-71 -72 -71 -190zM226 -8l354 756h63l-353 -756h-64z" />
    <glyph glyph-name="questiondown" unicode="&#xbf;" horiz-adv-x="444" 
d="M330 44h86c0 -107 -34 -236 -189 -236c-113 0 -186 81 -186 191c0 72 26 121 66 167l47 55c36 44 48 72 48 159h86c0 -105 -13 -143 -56 -195l-54 -65c-28 -33 -45 -78 -45 -121c0 -61 30 -116 93 -116c94 0 104 106 104 161zM202 464v94h86v-94h-86z" />
    <glyph glyph-name="grave" unicode="`" horiz-adv-x="296" 
d="M137 617l-71 149h92l35 -149h-56z" />
    <glyph glyph-name="acute" unicode="&#xb4;" horiz-adv-x="296" 
d="M114 617l34 149h95l-73 -149h-56z" />
    <glyph glyph-name="circumflex" unicode="&#x2c6;" horiz-adv-x="296" 
d="M56 616l50 150h103l49 -150h-55l-45 85l-48 -85h-54z" />
    <glyph glyph-name="tilde" unicode="&#x2dc;" horiz-adv-x="296" 
d="M68 640h-54c8 49 16 103 71 103c39 0 73 -32 111 -32c16 0 25 19 33 33h53c-4 -29 -11 -103 -78 -103c-35 0 -66 32 -101 32c-16 0 -27 -19 -35 -33z" />
    <glyph glyph-name="macron" unicode="&#xaf;" horiz-adv-x="296" 
d="M18 661v62h260v-62h-260z" />
    <glyph glyph-name="breve" unicode="&#x2d8;" horiz-adv-x="296" 
d="M211 761h61c-5 -41 -21 -138 -123 -138c-103 0 -117 95 -121 138h58c10 -32 29 -78 62 -78s53 46 63 78z" />
    <glyph glyph-name="dotaccent" unicode="&#x2d9;" horiz-adv-x="296" 
d="M113 634v115h70v-115h-70z" />
    <glyph glyph-name="dieresis" unicode="&#xa8;" horiz-adv-x="296" 
d="M57 634v115h70v-115h-70zM181 634v115h70v-115h-70z" />
    <glyph glyph-name="ring" unicode="&#x2da;" horiz-adv-x="296" 
d="M148 617c-56 0 -100 47 -100 102c0 57 43 107 100 107c59 0 108 -48 108 -107c0 -58 -50 -102 -108 -102zM104 719c0 -25 19 -46 44 -46c27 0 52 19 52 46c0 28 -23 51 -52 51c-26 0 -44 -25 -44 -51z" />
    <glyph glyph-name="cedilla" unicode="&#xb8;" horiz-adv-x="296" 
d="M185 3l-23 -65c5 0 10 1 14 1c38 0 77 -23 77 -64c0 -49 -51 -80 -109 -80c-29 0 -58 10 -86 19l14 29c20 -2 40 -8 60 -8c27 0 57 13 57 39c0 20 -22 30 -41 30c-10 0 -20 -2 -30 -3l-9 10l33 92h43z" />
    <glyph glyph-name="hungarumlaut" unicode="&#x2dd;" horiz-adv-x="296" 
d="M21 617l33 149h94l-71 -149h-56zM153 617l36 149h95l-74 -149h-57z" />
    <glyph glyph-name="ogonek" unicode="&#x2db;" horiz-adv-x="296" 
d="M235 -126v-60c-19 -1 -37 -6 -55 -6c-59 0 -106 48 -106 109c0 64 43 90 72 113h43v-20c-18 -25 -41 -53 -41 -84c0 -36 17 -54 53 -54c11 0 22 2 34 2z" />
    <glyph glyph-name="caron" unicode="&#x2c7;" horiz-adv-x="296" 
d="M105 617l-49 149h55l45 -85l48 85h54l-50 -149h-103z" />
    <glyph glyph-name="emdash" unicode="&#x2014;" horiz-adv-x="852" 
d="M39 235v75h774v-75h-774z" />
    <glyph glyph-name="AE" unicode="&#xc6;" horiz-adv-x="870" 
d="M16 0l307 750h514v-75h-290v-246h271v-75h-271v-279h290v-75h-376v218h-272l-90 -218h-83zM376 675l-154 -382h239v382h-85z" />
    <glyph glyph-name="ordfeminine" unicode="&#xaa;" 
d="M194 632h-70c10 64 4 124 118 124c79 0 112 -32 112 -84v-214c0 -11 7 -20 17 -20c6 0 12 1 18 1v-53c-15 -3 -29 -8 -43 -8c-26 0 -32 12 -47 30c-27 -17 -57 -38 -89 -38c-70 0 -95 40 -95 105c0 153 169 87 169 174c0 33 -14 47 -41 47c-49 0 -47 -31 -49 -64z
M228 430c58 0 58 61 58 133c-75 -35 -97 -38 -97 -81c0 -35 6 -52 39 -52z" />
    <glyph glyph-name="Lslash" unicode="&#x141;" horiz-adv-x="500" 
d="M93 0v326l-67 -55v97l67 56v326h86v-254l106 90v-99l-106 -89v-323h301v-75h-387z" />
    <glyph glyph-name="Oslash" unicode="&#xd8;" horiz-adv-x="574" 
d="M41 17l49 82c-46 70 -47 166 -47 275c0 213 37 392 253 392c91 0 134 -44 155 -61l38 65l44 -29l-51 -81c29 -46 51 -110 51 -286c0 -213 -49 -390 -248 -390c-76 0 -125 29 -165 69l-37 -63zM143 187l263 443c-17 32 -61 61 -118 61c-133 0 -153 -153 -153 -317
c0 -35 2 -125 6 -187h2zM430 571l-269 -449c15 -20 46 -63 115 -63c134 0 165 115 165 315c0 66 0 139 -11 197z" />
    <glyph glyph-name="OE" unicode="&#x152;" horiz-adv-x="852" 
d="M430 0v50c-34 -33 -77 -66 -140 -66c-217 0 -245 197 -245 388c0 234 54 394 245 394c89 0 120 -35 138 -70h2v54h376v-75h-290v-244h271v-75h-271v-281h290v-75h-376zM430 162v412c0 18 -31 117 -140 117c-146 0 -153 -162 -153 -319c0 -179 5 -313 153 -313
c92 0 140 85 140 103z" />
    <glyph glyph-name="ordmasculine" unicode="&#xba;" 
d="M100 556c0 123 23 200 140 200c118 0 141 -77 141 -200c0 -115 -29 -186 -141 -186c-111 0 -140 71 -140 186zM240 696c-51 0 -66 -35 -66 -140c0 -94 19 -126 66 -126c48 0 67 32 67 126c0 107 -16 140 -67 140z" />
    <glyph glyph-name="ae" unicode="&#xe6;" horiz-adv-x="685" 
d="M293 285l-55 -18c-71 -24 -115 -30 -115 -129c0 -58 25 -84 69 -84c71 0 101 45 101 122v109zM562 182h78c0 -86 -36 -198 -168 -198c-101 0 -120 43 -138 69c-13 -20 -54 -69 -149 -69c-98 0 -145 47 -145 158c0 115 63 146 128 168l87 29c35 11 41 23 41 79
c0 61 -26 86 -81 86c-79 0 -81 -52 -85 -96h-75c0 57 8 166 170 166c86 0 114 -36 127 -50c17 17 37 50 120 50c169 0 170 -173 170 -303h-269c0 -117 10 -217 99 -217c82 0 90 100 90 128zM373 341h186c0 55 -3 163 -87 163c-85 0 -99 -97 -99 -163z" />
    <glyph glyph-name="dotlessi" unicode="&#x131;" horiz-adv-x="204" 
d="M63 0v558h78v-558h-78z" />
    <glyph glyph-name="lslash" unicode="&#x142;" horiz-adv-x="204" 
d="M65 0v335l-64 -44v81l64 44v334h78v-279l59 42v-81l-59 -42v-390h-78z" />
    <glyph glyph-name="oslash" unicode="&#xf8;" 
d="M83 -16l-41 24l37 59c-17 37 -39 89 -39 216c0 160 35 291 200 291c78 0 96 -18 127 -44l32 51l41 -24l-43 -69c31 -57 39 -91 39 -205c0 -181 -51 -299 -199 -299c-70 0 -98 24 -127 42zM132 151l193 313c-11 20 -40 40 -85 40c-90 0 -117 -88 -117 -220
c0 -42 3 -91 7 -133h2zM346 407l-197 -317c11 -17 40 -36 84 -36c94 0 120 84 120 231c0 40 -1 84 -7 122z" />
    <glyph glyph-name="oe" unicode="&#x153;" horiz-adv-x="741" 
d="M623 185h78c-8 -68 -19 -201 -170 -201c-92 0 -119 42 -148 69c-25 -22 -56 -69 -144 -69c-166 0 -197 160 -197 290c0 143 29 300 197 300c97 0 123 -44 144 -72c25 26 56 72 148 72c172 0 172 -181 172 -303h-271c0 -81 0 -217 99 -217c83 0 85 75 92 131zM125 274
c0 -127 18 -220 114 -220s110 93 110 220c0 151 -17 230 -110 230c-87 0 -114 -62 -114 -230zM433 341h187c0 58 -6 163 -89 163c-92 0 -98 -96 -98 -163z" />
    <glyph glyph-name="germandbls" unicode="&#xdf;" 
d="M53 0v577c0 120 57 173 164 173c114 0 169 -69 169 -171c0 -82 -39 -102 -84 -129c69 -27 131 -40 131 -223c0 -240 -129 -243 -250 -243v70c94 0 167 4 167 172c0 179 -74 165 -167 179v64c51 8 120 7 120 106c0 84 -39 105 -88 105c-63 0 -84 -39 -84 -106v-574h-78z
" />
    <glyph glyph-name="onesuperior" unicode="&#xb9;" horiz-adv-x="352" 
d="M168 252v347h-103v56c71 0 104 11 121 85h50v-488h-68z" />
    <glyph glyph-name="logicalnot" unicode="&#xac;" horiz-adv-x="852" 
d="M647 163v195h-521v78h599v-273h-78z" />
    <glyph glyph-name="mu" unicode="&#xb5;" 
d="M65 -192v750h78v-360c0 -41 5 -144 88 -144c67 0 107 61 107 144v360h78v-558h-70v69h-2c-17 -48 -60 -85 -113 -85c-50 0 -73 22 -88 33v-209h-78z" />
    <glyph glyph-name="trademark" unicode="&#x2122;" horiz-adv-x="611" 
d="M128 460v248h-73v42h190v-42h-74v-248h-43zM278 460v290h78l60 -228h2l59 228h80v-290h-43v262h-2l-68 -262h-53l-68 262h-2v-262h-43z" />
    <glyph glyph-name="Eth" unicode="&#xd0;" horiz-adv-x="574" 
d="M70 0v351h-66v75h66v324h230c192 0 234 -163 234 -390c0 -152 -34 -360 -233 -360h-231zM156 351v-276h134c124 0 152 138 152 283c0 195 -19 317 -164 317h-122v-249h149v-75h-149z" />
    <glyph glyph-name="onehalf" unicode="&#xbd;" horiz-adv-x="852" 
d="M172 -8l354 756h63l-353 -756h-64zM128 252v347h-103v56c71 0 104 11 121 85h50v-488h-68zM788 0h-285c0 215 206 229 206 352c0 59 -28 84 -65 84c-48 0 -63 -50 -63 -112h-78c0 63 9 172 142 172c92 0 142 -52 142 -136c0 -124 -98 -148 -193 -265
c-6 -9 -9 -21 -13 -31h207v-64z" />
    <glyph glyph-name="plusminus" unicode="&#xb1;" horiz-adv-x="852" 
d="M387 0v261h-260v78h260v260h78v-260h260v-78h-260v-261h-78zM127 -127v78h598v-78h-598z" />
    <glyph glyph-name="Thorn" unicode="&#xde;" horiz-adv-x="537" 
d="M76 0v750h86v-159h116c123 0 228 -38 228 -206c0 -149 -68 -224 -219 -224h-125v-161h-86zM162 516v-280h125c91 0 127 59 127 145c0 94 -51 135 -148 135h-104z" />
    <glyph glyph-name="onequarter" unicode="&#xbc;" horiz-adv-x="852" 
d="M468 165l181 323h68v-314h48v-64h-48v-110h-68v110h-181v55zM647 389l-115 -215h117v215h-2zM156 252v355h-103v56c71 0 104 11 121 85h50v-496h-68zM192 -8l354 756h63l-353 -756h-64z" />
    <glyph glyph-name="divide" unicode="&#xf7;" horiz-adv-x="852" 
d="M126 261v78h599v-78h-599zM377 21v97h98v-97h-98zM377 482v97h98v-97h-98z" />
    <glyph glyph-name="brokenbar" unicode="&#xa6;" horiz-adv-x="258" 
d="M99 378v372h60v-372h-60zM99 -179v371h60v-371h-60z" />
    <glyph glyph-name="degree" unicode="&#xb0;" 
d="M240 370c-108 0 -193 91 -193 193c0 109 88 193 193 193c106 0 193 -84 193 -193c0 -102 -85 -193 -193 -193zM122 563c0 -61 51 -118 118 -118c66 0 118 57 118 118c0 69 -55 118 -118 118c-64 0 -118 -49 -118 -118z" />
    <glyph glyph-name="thorn" unicode="&#xfe;" 
d="M63 -192v942h78v-261h2c27 42 73 85 124 85c150 0 172 -174 172 -292c0 -158 -33 -298 -167 -298c-50 0 -100 36 -129 73h-2v-249h-78zM141 291c0 -130 16 -237 116 -237c75 0 99 91 99 232c0 139 -27 218 -102 218c-87 0 -113 -101 -113 -213z" />
    <glyph glyph-name="threequarters" unicode="&#xbe;" horiz-adv-x="852" 
d="M691 0v110h-181v55l181 323h68v-314h48v-64h-48v-110h-68zM689 389l-115 -215h117v215h-2zM252 -8l354 756h63l-353 -756h-64zM118 595h-74c0 80 32 153 140 153c81 0 131 -44 131 -129c0 -72 -39 -90 -68 -105c37 -10 81 -34 81 -117c0 -101 -52 -153 -146 -153
c-123 0 -147 73 -147 161h70c0 -56 15 -101 73 -101c43 0 72 28 72 83c0 90 -55 90 -111 90v60c52 0 98 8 98 80c0 48 -25 70 -57 70c-40 0 -62 -39 -62 -72v-20z" />
    <glyph glyph-name="twosuperior" unicode="&#xb2;" horiz-adv-x="352" 
d="M323 252h-285c0 215 206 229 206 352c0 59 -28 84 -65 84c-48 0 -63 -50 -63 -112h-78c0 63 9 172 142 172c92 0 142 -52 142 -136c0 -124 -98 -148 -193 -265c-6 -9 -9 -21 -13 -31h207v-64z" />
    <glyph glyph-name="registered" unicode="&#xae;" horiz-adv-x="500" 
d="M250 296c-129 0 -235 105 -235 235c0 129 106 235 235 235s235 -106 235 -235c0 -130 -106 -235 -235 -235zM50 531c0 -110 90 -200 200 -200s200 90 200 200s-90 200 -200 200s-200 -90 -200 -200zM161 413v248h83c47 0 101 -8 101 -80c0 -44 -27 -53 -43 -61l46 -107
h-50l-39 100h-53v-100h-45zM206 618v-65h54c21 0 38 10 38 32s-15 33 -42 33h-50z" />
    <glyph glyph-name="minus" unicode="&#x2212;" horiz-adv-x="852" 
d="M126 261v78h599v-78h-599z" />
    <glyph glyph-name="eth" unicode="&#xf0;" 
d="M325 717l-57 -33c75 -67 167 -173 167 -378c0 -251 -64 -322 -196 -322c-156 0 -193 135 -193 295c0 183 57 295 177 295c32 0 46 -5 64 -13l2 2c-21 30 -50 62 -81 86l-88 -52l-25 39l75 44c-17 9 -37 17 -55 24l40 46c25 -9 53 -22 74 -35l71 41zM129 278
c0 -123 14 -224 109 -224c100 0 114 101 114 231c0 86 -6 219 -109 219s-114 -107 -114 -226z" />
    <glyph glyph-name="multiply" unicode="&#xd7;" horiz-adv-x="852" 
d="M184 0l-54 54l239 239l-240 240l55 55l241 -241l241 241l56 -55l-240 -240l239 -239l-54 -54l-242 241z" />
    <glyph glyph-name="threesuperior" unicode="&#xb3;" horiz-adv-x="352" 
d="M118 595h-74c0 80 32 153 140 153c81 0 131 -44 131 -129c0 -72 -39 -90 -68 -105c37 -10 81 -34 81 -117c0 -101 -52 -153 -146 -153c-123 0 -147 73 -147 161h70c0 -56 15 -101 73 -101c43 0 72 28 72 83c0 90 -55 90 -111 90v60c52 0 98 8 98 80c0 48 -25 70 -57 70
c-40 0 -62 -39 -62 -72v-20z" />
    <glyph glyph-name="copyright" unicode="&#xa9;" horiz-adv-x="500" 
d="M250 296c-130 0 -235 105 -235 235c0 129 105 235 235 235c129 0 235 -106 235 -235c0 -130 -106 -235 -235 -235zM50 531c0 -110 90 -200 200 -200s200 90 200 200s-90 200 -200 200s-200 -90 -200 -200zM330 472l26 -32c-11 -10 -38 -39 -95 -39
c-71 0 -136 57 -136 134s66 134 136 134c55 0 84 -29 95 -39l-26 -33c-12 11 -34 31 -69 31c-43 0 -93 -34 -93 -93c0 -62 51 -93 90 -93c42 0 60 19 72 30z" />
    <glyph glyph-name="Aacute" unicode="&#xc1;" horiz-adv-x="556" 
d="M16 0l206 750h112l206 -750h-88l-54 212h-241l-53 -212h-88zM277 686l-100 -399h201l-99 399h-2zM244 809l34 149h95l-73 -149h-56z" />
    <glyph glyph-name="Acircumflex" unicode="&#xc2;" horiz-adv-x="556" 
d="M16 0l206 750h112l206 -750h-88l-54 212h-241l-53 -212h-88zM277 686l-100 -399h201l-99 399h-2zM176 808l50 150h103l49 -150h-55l-45 85l-48 -85h-54z" />
    <glyph glyph-name="Adieresis" unicode="&#xc4;" horiz-adv-x="556" 
d="M16 0l206 750h112l206 -750h-88l-54 212h-241l-53 -212h-88zM277 686l-100 -399h201l-99 399h-2zM177 826v115h70v-115h-70zM301 826v115h70v-115h-70z" />
    <glyph glyph-name="Agrave" unicode="&#xc0;" horiz-adv-x="556" 
d="M16 0l206 750h112l206 -750h-88l-54 212h-241l-53 -212h-88zM277 686l-100 -399h201l-99 399h-2zM267 809l-71 149h92l35 -149h-56z" />
    <glyph glyph-name="Aring" unicode="&#xc5;" horiz-adv-x="556" 
d="M16 0l206 750h112l206 -750h-88l-54 212h-241l-53 -212h-88zM277 686l-100 -399h201l-99 399h-2zM268 809c-56 0 -100 47 -100 102c0 57 43 107 100 107c59 0 108 -48 108 -107c0 -58 -50 -102 -108 -102zM224 911c0 -25 19 -46 44 -46c27 0 52 19 52 46
c0 28 -23 51 -52 51c-26 0 -44 -25 -44 -51z" />
    <glyph glyph-name="Atilde" unicode="&#xc3;" horiz-adv-x="556" 
d="M16 0l206 750h112l206 -750h-88l-54 212h-241l-53 -212h-88zM277 686l-100 -399h201l-99 399h-2zM198 832h-54c8 49 16 103 71 103c39 0 73 -32 111 -32c16 0 25 19 33 33h53c-4 -29 -11 -103 -78 -103c-35 0 -66 32 -101 32c-16 0 -27 -19 -35 -33z" />
    <glyph glyph-name="Ccedilla" unicode="&#xc7;" horiz-adv-x="537" 
d="M414 270h86c-3 -107 -29 -286 -220 -286c-138 0 -233 73 -233 378c0 280 65 404 239 404s211 -134 213 -240h-86c-7 71 -21 165 -128 165c-135 0 -146 -150 -146 -326c0 -198 33 -306 141 -306c123 0 127 132 134 211zM306 3l-23 -65c5 0 10 1 14 1c38 0 77 -23 77 -64
c0 -49 -51 -80 -109 -80c-29 0 -58 10 -86 19l14 29c20 -2 40 -8 60 -8c27 0 57 13 57 39c0 20 -22 30 -41 30c-10 0 -20 -2 -30 -3l-9 10l33 92h43z" />
    <glyph glyph-name="Eacute" unicode="&#xc9;" horiz-adv-x="500" 
d="M76 0v750h375v-75h-289v-246h270v-75h-270v-279h289v-75h-375zM216 809l34 149h95l-73 -149h-56z" />
    <glyph glyph-name="Ecircumflex" unicode="&#xca;" horiz-adv-x="500" 
d="M76 0v750h375v-75h-289v-246h270v-75h-270v-279h289v-75h-375zM158 808l50 150h103l49 -150h-55l-45 85l-48 -85h-54z" />
    <glyph glyph-name="Edieresis" unicode="&#xcb;" horiz-adv-x="500" 
d="M76 0v750h375v-75h-289v-246h270v-75h-270v-279h289v-75h-375zM159 826v115h70v-115h-70zM283 826v115h70v-115h-70z" />
    <glyph glyph-name="Egrave" unicode="&#xc8;" horiz-adv-x="500" 
d="M76 0v750h375v-75h-289v-246h270v-75h-270v-279h289v-75h-375zM249 809l-71 149h92l35 -149h-56z" />
    <glyph glyph-name="Iacute" unicode="&#xcd;" horiz-adv-x="241" 
d="M77 0v750h86v-750h-86zM87 809l34 149h95l-73 -149h-56z" />
    <glyph glyph-name="Icircumflex" unicode="&#xce;" horiz-adv-x="241" 
d="M77 0v750h86v-750h-86zM19 808l50 150h103l49 -150h-55l-45 85l-48 -85h-54z" />
    <glyph glyph-name="Idieresis" unicode="&#xcf;" horiz-adv-x="241" 
d="M77 0v750h86v-750h-86zM30 826v115h70v-115h-70zM154 826v115h70v-115h-70z" />
    <glyph glyph-name="Igrave" unicode="&#xcc;" horiz-adv-x="241" 
d="M77 0v750h86v-750h-86zM110 809l-71 149h92l35 -149h-56z" />
    <glyph glyph-name="Ntilde" unicode="&#xd1;" horiz-adv-x="593" 
d="M70 0v750h117l248 -637h2v637h86v-750h-117l-248 637h-2v-637h-86zM217 832h-54c8 49 16 103 71 103c39 0 73 -32 111 -32c16 0 25 19 33 33h53c-4 -29 -11 -103 -78 -103c-35 0 -66 32 -101 32c-16 0 -27 -19 -35 -33z" />
    <glyph glyph-name="Oacute" unicode="&#xd3;" horiz-adv-x="574" 
d="M285 -16c-211 0 -241 203 -241 390c0 213 40 392 245 392c217 0 241 -185 241 -392c0 -198 -36 -390 -245 -390zM136 374c0 -169 3 -315 153 -315c138 0 149 151 149 322c0 155 -6 310 -149 310c-146 0 -153 -160 -153 -317zM253 809l34 149h95l-73 -149h-56z" />
    <glyph glyph-name="Ocircumflex" unicode="&#xd4;" horiz-adv-x="574" 
d="M285 -16c-211 0 -241 203 -241 390c0 213 40 392 245 392c217 0 241 -185 241 -392c0 -198 -36 -390 -245 -390zM136 374c0 -169 3 -315 153 -315c138 0 149 151 149 322c0 155 -6 310 -149 310c-146 0 -153 -160 -153 -317zM195 808l50 150h103l49 -150h-55l-45 85
l-48 -85h-54z" />
    <glyph glyph-name="Odieresis" unicode="&#xd6;" horiz-adv-x="574" 
d="M285 -16c-211 0 -241 203 -241 390c0 213 40 392 245 392c217 0 241 -185 241 -392c0 -198 -36 -390 -245 -390zM136 374c0 -169 3 -315 153 -315c138 0 149 151 149 322c0 155 -6 310 -149 310c-146 0 -153 -160 -153 -317zM196 826v115h70v-115h-70zM320 826v115h70
v-115h-70z" />
    <glyph glyph-name="Ograve" unicode="&#xd2;" horiz-adv-x="574" 
d="M285 -16c-211 0 -241 203 -241 390c0 213 40 392 245 392c217 0 241 -185 241 -392c0 -198 -36 -390 -245 -390zM136 374c0 -169 3 -315 153 -315c138 0 149 151 149 322c0 155 -6 310 -149 310c-146 0 -153 -160 -153 -317zM276 809l-71 149h92l35 -149h-56z" />
    <glyph glyph-name="Otilde" unicode="&#xd5;" horiz-adv-x="574" 
d="M285 -16c-211 0 -241 203 -241 390c0 213 40 392 245 392c217 0 241 -185 241 -392c0 -198 -36 -390 -245 -390zM136 374c0 -169 3 -315 153 -315c138 0 149 151 149 322c0 155 -6 310 -149 310c-146 0 -153 -160 -153 -317zM207 832h-54c8 49 16 103 71 103
c39 0 73 -32 111 -32c16 0 25 19 33 33h53c-4 -29 -11 -103 -78 -103c-35 0 -66 32 -101 32c-16 0 -27 -19 -35 -33z" />
    <glyph glyph-name="Scaron" unicode="&#x160;" horiz-adv-x="537" 
d="M253 443l86 -31c95 -33 163 -66 163 -208c0 -139 -92 -220 -227 -220c-182 0 -231 110 -231 215v38h86v-36c0 -68 35 -142 141 -142c90 0 139 51 139 136c0 110 -57 118 -147 151l-78 28c-88 30 -127 84 -127 184c0 127 79 208 218 208c176 0 206 -125 206 -213h-86
c0 47 -9 138 -122 138c-77 0 -124 -42 -124 -126c0 -78 40 -99 103 -122zM226 809l-49 149h55l45 -85l48 85h54l-50 -149h-103z" />
    <glyph glyph-name="Uacute" unicode="&#xda;" horiz-adv-x="593" 
d="M521 750v-555c0 -99 -45 -211 -226 -211s-223 112 -223 211v555h86v-545c0 -40 12 -146 140 -146c129 0 137 106 137 146v545h86zM263 809l34 149h95l-73 -149h-56z" />
    <glyph glyph-name="Ucircumflex" unicode="&#xdb;" horiz-adv-x="593" 
d="M521 750v-555c0 -99 -45 -211 -226 -211s-223 112 -223 211v555h86v-545c0 -40 12 -146 140 -146c129 0 137 106 137 146v545h86zM195 808l50 150h103l49 -150h-55l-45 85l-48 -85h-54z" />
    <glyph glyph-name="Udieresis" unicode="&#xdc;" horiz-adv-x="593" 
d="M521 750v-555c0 -99 -45 -211 -226 -211s-223 112 -223 211v555h86v-545c0 -40 12 -146 140 -146c129 0 137 106 137 146v545h86zM206 826v115h70v-115h-70zM330 826v115h70v-115h-70z" />
    <glyph glyph-name="Ugrave" unicode="&#xd9;" horiz-adv-x="593" 
d="M521 750v-555c0 -99 -45 -211 -226 -211s-223 112 -223 211v555h86v-545c0 -40 12 -146 140 -146c129 0 137 106 137 146v545h86zM286 809l-71 149h92l35 -149h-56z" />
    <glyph glyph-name="Yacute" unicode="&#xdd;" horiz-adv-x="556" 
d="M235 0v287l-224 463h99l168 -389l168 389h99l-224 -463v-287h-86zM244 809l34 149h95l-73 -149h-56z" />
    <glyph glyph-name="Ydieresis" unicode="&#x178;" horiz-adv-x="556" 
d="M235 0v287l-224 463h99l168 -389l168 389h99l-224 -463v-287h-86zM187 826v115h70v-115h-70zM311 826v115h70v-115h-70z" />
    <glyph glyph-name="Zcaron" unicode="&#x17d;" horiz-adv-x="500" 
d="M27 0v70l348 605h-336v75h428v-74l-348 -601h354v-75h-446zM217 809l-49 149h55l45 -85l48 85h54l-50 -149h-103z" />
    <glyph glyph-name="aacute" unicode="&#xe1;" horiz-adv-x="444" 
d="M427 57v-57c-14 -6 -29 -8 -38 -8c-61 0 -75 39 -81 63c-21 -34 -43 -71 -130 -71c-89 0 -130 58 -130 156c0 97 40 139 122 168l78 27c50 17 55 25 55 82c0 48 -16 87 -78 87s-87 -42 -87 -97h-75c0 70 20 167 163 167c114 0 155 -55 155 -144v-318c0 -50 10 -56 35 -56
c4 0 7 0 11 1zM303 291l-40 -16c-86 -36 -132 -36 -132 -134c0 -59 29 -87 72 -87c52 0 100 51 100 135v102zM208 617l34 149h95l-73 -149h-56z" />
    <glyph glyph-name="acircumflex" unicode="&#xe2;" horiz-adv-x="444" 
d="M427 57v-57c-14 -6 -29 -8 -38 -8c-61 0 -75 39 -81 63c-21 -34 -43 -71 -130 -71c-89 0 -130 58 -130 156c0 97 40 139 122 168l78 27c50 17 55 25 55 82c0 48 -16 87 -78 87s-87 -42 -87 -97h-75c0 70 20 167 163 167c114 0 155 -55 155 -144v-318c0 -50 10 -56 35 -56
c4 0 7 0 11 1zM303 291l-40 -16c-86 -36 -132 -36 -132 -134c0 -59 29 -87 72 -87c52 0 100 51 100 135v102zM130 616l50 150h103l49 -150h-55l-45 85l-48 -85h-54z" />
    <glyph glyph-name="adieresis" unicode="&#xe4;" horiz-adv-x="444" 
d="M427 57v-57c-14 -6 -29 -8 -38 -8c-61 0 -75 39 -81 63c-21 -34 -43 -71 -130 -71c-89 0 -130 58 -130 156c0 97 40 139 122 168l78 27c50 17 55 25 55 82c0 48 -16 87 -78 87s-87 -42 -87 -97h-75c0 70 20 167 163 167c114 0 155 -55 155 -144v-318c0 -50 10 -56 35 -56
c4 0 7 0 11 1zM303 291l-40 -16c-86 -36 -132 -36 -132 -134c0 -59 29 -87 72 -87c52 0 100 51 100 135v102zM131 634v115h70v-115h-70zM255 634v115h70v-115h-70z" />
    <glyph glyph-name="agrave" unicode="&#xe0;" horiz-adv-x="444" 
d="M427 57v-57c-14 -6 -29 -8 -38 -8c-61 0 -75 39 -81 63c-21 -34 -43 -71 -130 -71c-89 0 -130 58 -130 156c0 97 40 139 122 168l78 27c50 17 55 25 55 82c0 48 -16 87 -78 87s-87 -42 -87 -97h-75c0 70 20 167 163 167c114 0 155 -55 155 -144v-318c0 -50 10 -56 35 -56
c4 0 7 0 11 1zM303 291l-40 -16c-86 -36 -132 -36 -132 -134c0 -59 29 -87 72 -87c52 0 100 51 100 135v102zM211 617l-71 149h92l35 -149h-56z" />
    <glyph glyph-name="aring" unicode="&#xe5;" horiz-adv-x="444" 
d="M427 57v-57c-14 -6 -29 -8 -38 -8c-61 0 -75 39 -81 63c-21 -34 -43 -71 -130 -71c-89 0 -130 58 -130 156c0 97 40 139 122 168l78 27c50 17 55 25 55 82c0 48 -16 87 -78 87s-87 -42 -87 -97h-75c0 70 20 167 163 167c114 0 155 -55 155 -144v-318c0 -50 10 -56 35 -56
c4 0 7 0 11 1zM303 291l-40 -16c-86 -36 -132 -36 -132 -134c0 -59 29 -87 72 -87c52 0 100 51 100 135v102zM222 617c-56 0 -100 47 -100 102c0 57 43 107 100 107c59 0 108 -48 108 -107c0 -58 -50 -102 -108 -102zM178 719c0 -25 19 -46 44 -46c27 0 52 19 52 46
c0 28 -23 51 -52 51c-26 0 -44 -25 -44 -51z" />
    <glyph glyph-name="atilde" unicode="&#xe3;" horiz-adv-x="444" 
d="M427 57v-57c-14 -6 -29 -8 -38 -8c-61 0 -75 39 -81 63c-21 -34 -43 -71 -130 -71c-89 0 -130 58 -130 156c0 97 40 139 122 168l78 27c50 17 55 25 55 82c0 48 -16 87 -78 87s-87 -42 -87 -97h-75c0 70 20 167 163 167c114 0 155 -55 155 -144v-318c0 -50 10 -56 35 -56
c4 0 7 0 11 1zM303 291l-40 -16c-86 -36 -132 -36 -132 -134c0 -59 29 -87 72 -87c52 0 100 51 100 135v102zM142 640h-54c8 49 16 103 71 103c39 0 73 -32 111 -32c16 0 25 19 33 33h53c-4 -29 -11 -103 -78 -103c-35 0 -66 32 -101 32c-16 0 -27 -19 -35 -33z" />
    <glyph glyph-name="ccedilla" unicode="&#xe7;" horiz-adv-x="444" 
d="M328 191h83c-8 -64 -16 -207 -173 -207c-162 0 -190 139 -190 291c0 193 54 299 190 299c141 0 172 -114 173 -192h-83c-9 56 -21 122 -90 122c-88 0 -107 -117 -107 -229c0 -145 23 -221 107 -221c64 0 85 57 90 137zM259 3l-23 -65c5 0 10 1 14 1c38 0 77 -23 77 -64
c0 -49 -51 -80 -109 -80c-29 0 -58 10 -86 19l14 29c20 -2 40 -8 60 -8c27 0 57 13 57 39c0 20 -22 30 -41 30c-10 0 -20 -2 -30 -3l-9 10l33 92h43z" />
    <glyph glyph-name="eacute" unicode="&#xe9;" horiz-adv-x="444" 
d="M318 182h78c0 -86 -36 -198 -168 -198c-157 0 -182 133 -182 297c0 166 36 293 182 293c169 0 170 -173 170 -303h-269c0 -117 10 -217 99 -217c82 0 90 100 90 128zM129 341h186c0 55 -3 163 -87 163c-85 0 -99 -97 -99 -163zM188 617l34 149h95l-73 -149h-56z" />
    <glyph glyph-name="ecircumflex" unicode="&#xea;" horiz-adv-x="444" 
d="M318 182h78c0 -86 -36 -198 -168 -198c-157 0 -182 133 -182 297c0 166 36 293 182 293c169 0 170 -173 170 -303h-269c0 -117 10 -217 99 -217c82 0 90 100 90 128zM129 341h186c0 55 -3 163 -87 163c-85 0 -99 -97 -99 -163zM130 616l50 150h103l49 -150h-55l-45 85
l-48 -85h-54z" />
    <glyph glyph-name="edieresis" unicode="&#xeb;" horiz-adv-x="444" 
d="M318 182h78c0 -86 -36 -198 -168 -198c-157 0 -182 133 -182 297c0 166 36 293 182 293c169 0 170 -173 170 -303h-269c0 -117 10 -217 99 -217c82 0 90 100 90 128zM129 341h186c0 55 -3 163 -87 163c-85 0 -99 -97 -99 -163zM131 634v115h70v-115h-70zM255 634v115h70
v-115h-70z" />
    <glyph glyph-name="egrave" unicode="&#xe8;" horiz-adv-x="444" 
d="M318 182h78c0 -86 -36 -198 -168 -198c-157 0 -182 133 -182 297c0 166 36 293 182 293c169 0 170 -173 170 -303h-269c0 -117 10 -217 99 -217c82 0 90 100 90 128zM129 341h186c0 55 -3 163 -87 163c-85 0 -99 -97 -99 -163zM211 617l-71 149h92l35 -149h-56z" />
    <glyph glyph-name="iacute" unicode="&#xed;" horiz-adv-x="204" 
d="M63 0v558h78v-558h-78zM68 617l34 149h95l-73 -149h-56z" />
    <glyph glyph-name="icircumflex" unicode="&#xee;" horiz-adv-x="204" 
d="M63 0v558h78v-558h-78zM-5 616l50 150h103l49 -150h-55l-45 85l-48 -85h-54z" />
    <glyph glyph-name="idieresis" unicode="&#xef;" horiz-adv-x="204" 
d="M63 0v558h78v-558h-78zM11 634v115h70v-115h-70zM135 634v115h70v-115h-70z" />
    <glyph glyph-name="igrave" unicode="&#xec;" horiz-adv-x="204" 
d="M63 0v558h78v-558h-78zM91 617l-71 149h92l35 -149h-56z" />
    <glyph glyph-name="ntilde" unicode="&#xf1;" 
d="M65 0v558h70v-62h2c12 25 52 78 145 78c87 0 134 -51 134 -141v-433h-78v393c0 74 -18 111 -81 111c-84 0 -114 -79 -114 -94v-410h-78zM161 640h-54c8 49 16 103 71 103c39 0 73 -32 111 -32c16 0 25 19 33 33h53c-4 -29 -11 -103 -78 -103c-35 0 -66 32 -101 32
c-16 0 -27 -19 -35 -33z" />
    <glyph glyph-name="oacute" unicode="&#xf3;" 
d="M238 -16c-144 0 -193 110 -193 300c0 187 53 290 195 290c143 0 196 -104 196 -279c0 -192 -49 -311 -198 -311zM128 275c0 -140 23 -221 110 -221c97 0 115 87 115 239c0 130 -24 211 -108 211c-97 0 -117 -87 -117 -229zM207 617l34 149h95l-73 -149h-56z" />
    <glyph glyph-name="ocircumflex" unicode="&#xf4;" 
d="M238 -16c-144 0 -193 110 -193 300c0 187 53 290 195 290c143 0 196 -104 196 -279c0 -192 -49 -311 -198 -311zM128 275c0 -140 23 -221 110 -221c97 0 115 87 115 239c0 130 -24 211 -108 211c-97 0 -117 -87 -117 -229zM149 616l50 150h103l49 -150h-55l-45 85
l-48 -85h-54z" />
    <glyph glyph-name="odieresis" unicode="&#xf6;" 
d="M238 -16c-144 0 -193 110 -193 300c0 187 53 290 195 290c143 0 196 -104 196 -279c0 -192 -49 -311 -198 -311zM128 275c0 -140 23 -221 110 -221c97 0 115 87 115 239c0 130 -24 211 -108 211c-97 0 -117 -87 -117 -229zM150 634v115h70v-115h-70zM274 634v115h70v-115
h-70z" />
    <glyph glyph-name="ograve" unicode="&#xf2;" 
d="M238 -16c-144 0 -193 110 -193 300c0 187 53 290 195 290c143 0 196 -104 196 -279c0 -192 -49 -311 -198 -311zM128 275c0 -140 23 -221 110 -221c97 0 115 87 115 239c0 130 -24 211 -108 211c-97 0 -117 -87 -117 -229zM230 617l-71 149h92l35 -149h-56z" />
    <glyph glyph-name="otilde" unicode="&#xf5;" 
d="M238 -16c-144 0 -193 110 -193 300c0 187 53 290 195 290c143 0 196 -104 196 -279c0 -192 -49 -311 -198 -311zM128 275c0 -140 23 -221 110 -221c97 0 115 87 115 239c0 130 -24 211 -108 211c-97 0 -117 -87 -117 -229zM161 640h-54c8 49 16 103 71 103
c39 0 73 -32 111 -32c16 0 25 19 33 33h53c-4 -29 -11 -103 -78 -103c-35 0 -66 32 -101 32c-16 0 -27 -19 -35 -33z" />
    <glyph glyph-name="scaron" unicode="&#x161;" horiz-adv-x="426" 
d="M379 410h-78c0 28 0 94 -86 94c-49 0 -83 -27 -83 -81c0 -144 262 -58 262 -267c0 -106 -66 -172 -179 -172c-165 0 -176 109 -176 178h78c0 -55 13 -108 100 -108c56 0 94 35 94 91c0 157 -262 50 -262 278c0 86 62 151 166 151c142 0 164 -86 164 -164zM170 617
l-49 149h55l45 -85l48 85h54l-50 -149h-103z" />
    <glyph glyph-name="uacute" unicode="&#xfa;" 
d="M346 0v69h-2c-24 -48 -47 -85 -143 -85c-136 0 -136 95 -136 195v379h78v-380c0 -69 0 -124 81 -124c71 0 114 61 114 144v360h78v-558h-70zM207 617l34 149h95l-73 -149h-56z" />
    <glyph glyph-name="ucircumflex" unicode="&#xfb;" 
d="M346 0v69h-2c-24 -48 -47 -85 -143 -85c-136 0 -136 95 -136 195v379h78v-380c0 -69 0 -124 81 -124c71 0 114 61 114 144v360h78v-558h-70zM149 616l50 150h103l49 -150h-55l-45 85l-48 -85h-54z" />
    <glyph glyph-name="udieresis" unicode="&#xfc;" 
d="M346 0v69h-2c-24 -48 -47 -85 -143 -85c-136 0 -136 95 -136 195v379h78v-380c0 -69 0 -124 81 -124c71 0 114 61 114 144v360h78v-558h-70zM150 634v115h70v-115h-70zM274 634v115h70v-115h-70z" />
    <glyph glyph-name="ugrave" unicode="&#xf9;" 
d="M346 0v69h-2c-24 -48 -47 -85 -143 -85c-136 0 -136 95 -136 195v379h78v-380c0 -69 0 -124 81 -124c71 0 114 61 114 144v360h78v-558h-70zM230 617l-71 149h92l35 -149h-56z" />
    <glyph glyph-name="yacute" unicode="&#xfd;" horiz-adv-x="444" 
d="M439 558l-178 -580c-18 -59 -50 -170 -161 -170c-20 0 -43 5 -60 9v68c13 -2 32 -8 50 -8c69 0 76 65 97 116l-164 565h85l116 -457h2l128 457h85zM198 617l34 149h95l-73 -149h-56z" />
    <glyph glyph-name="ydieresis" unicode="&#xff;" horiz-adv-x="444" 
d="M439 558l-178 -580c-18 -59 -50 -170 -161 -170c-20 0 -43 5 -60 9v68c13 -2 32 -8 50 -8c69 0 76 65 97 116l-164 565h85l116 -457h2l128 457h85zM131 634v115h70v-115h-70zM255 634v115h70v-115h-70z" />
    <glyph glyph-name="zcaron" unicode="&#x17e;" horiz-adv-x="370" 
d="M16 0v72l249 416h-237v70h325v-64l-254 -424h254v-70h-337zM152 617l-49 149h55l45 -85l48 85h54l-50 -149h-103z" />
    </font>
</defs>
</svg>
